<!DOCTYPE svg PUBLIC "-//W3C//DTD SVG 1.1//EN" "http://www.w3.org/Graphics/SVG/1.1/DTD/svg11.dtd">
<!-- Uploaded to: SVG Repo, www.svgrepo.com, Transformed by: SVG Repo Mixer Tools -->
<svg fill="#c46dcf" version="1.1" id="Capa_1" xmlns="http://www.w3.org/2000/svg" xmlns:xlink="http://www.w3.org/1999/xlink" width="800px" height="800px" viewBox="0 0 195.104 195.104" xml:space="preserve" transform="rotate(-45)matrix(-1, 0, 0, 1, 0, 0)">
<g id="SVGRepo_bgCarrier" stroke-width="0"/>
<g id="SVGRepo_tracerCarrier" stroke-linecap="round" stroke-linejoin="round"/>
<g id="SVGRepo_iconCarrier"> <g> <g> <path d="M27.094,93.085c-0.712-1.677-1.76-3.218-3.1-4.533c-5.383-5.276-14.671-5.194-19.948,0.186 C1.404,91.426-0.024,94.979,0,98.745c0.037,3.764,1.535,7.295,4.235,9.938c2.655,2.612,6.153,4.056,9.895,4.056 c3.809,0,7.408-1.504,10.056-4.232c2.457-2.484,3.8-5.729,3.979-9.182c16.148-5.843,30.583,0.84,40.715,18.949 c0.131,0.243,0.381,0.377,0.569,0.572c0.28,0.688,0.554,1.352,0.834,2.059c1.19,3.002,2.451,6.059,3.742,9.115 c-9.216-6.12-19.866-7.502-31.058-3.758c-0.7-1.656-1.72-3.209-3.081-4.542c-5.374-5.285-14.678-5.188-19.939,0.183 c-2.652,2.691-4.08,6.235-4.056,9.998c0.046,3.77,1.535,7.301,4.241,9.95c2.658,2.606,6.162,4.043,9.895,4.043 c3.812,0,7.401-1.498,10.059-4.22c2.5-2.563,3.791-5.852,3.964-9.188c16.13-5.827,30.598,0.847,40.73,18.949 c0.131,0.25,0.387,0.384,0.573,0.579c7.812,11.812,18.532,21.562,35.289,25.574c3.702,0.889,7.405,1.315,11.052,1.315 c9.098,0,17.86-2.698,25.429-7.923c11.716-8.086,19.57-21.513,21.55-36.845c0.219-1.705-0.98-3.271-2.691-3.508 c-1.766-0.194-3.271,0.987-3.508,2.698c-1.754,13.584-8.652,25.434-18.9,32.521c-9.134,6.309-20.326,8.33-31.518,5.663 c-18.502-4.415-28.79-16.647-36.376-31.164c-5.343-16.489-2.497-29.812,8.135-38.265c0.563,0.938,1.229,1.82,2.009,2.601 c1.945,1.954,4.445,3.228,7.139,3.647c0.424,2.686,1.69,5.176,3.645,7.13c1.534,1.553,3.471,2.698,5.596,3.307 c2.734,0.792,5.748,0.64,8.367-0.396c1.139,2.594,3.081,4.792,5.602,6.18c4.336,2.424,9.998,2.016,13.901-0.834 c2.211,1.596,4.859,2.467,7.648,2.467c2.204,0,4.342-0.549,6.29-1.626c2.526-1.401,4.493-3.593,5.62-6.187 c2.612,1.022,5.602,1.175,8.366,0.39c2.138-0.621,4.062-1.76,5.584-3.301c1.961-1.948,3.239-4.451,3.653-7.136 c2.71-0.427,5.176-1.693,7.148-3.654c1.553-1.553,2.691-3.488,3.289-5.59c0.81-2.779,0.645-5.727-0.391-8.372 c2.595-1.136,4.805-3.094,6.188-5.624c1.071-1.927,1.632-4.104,1.632-6.299c0-2.768-0.89-5.416-2.467-7.605 c1.59-2.195,2.467-4.844,2.467-7.614c0-2.238-0.536-4.357-1.632-6.309c-1.401-2.533-3.605-4.497-6.188-5.626 c1.035-2.637,1.194-5.593,0.396-8.391c-0.646-2.14-1.748-4.01-3.307-5.569c-1.948-1.963-4.439-3.224-7.143-3.647 c-0.42-2.676-1.687-5.176-3.653-7.133c-1.547-1.559-3.422-2.67-5.584-3.312c-2.746-0.792-5.754-0.621-8.366,0.401 c-1.145-2.588-3.088-4.795-5.608-6.187c-4.348-2.42-9.968-2.034-13.907,0.841c-3.946-2.85-9.555-3.249-13.914-0.841 c-2.521,1.397-4.481,3.599-5.614,6.187c-2.618-1.035-5.65-1.181-8.354-0.396c-2.119,0.6-4.049,1.748-5.596,3.307 c-1.948,1.957-3.233,4.451-3.65,7.127c-2.701,0.43-5.176,1.69-7.146,3.66c-1.547,1.559-2.701,3.492-3.285,5.581 c-0.807,2.78-0.637,5.73,0.398,8.367c-2.582,1.135-4.801,3.093-6.198,5.632c-1.09,1.958-1.635,4.077-1.629,6.29 c0,2.768,0.886,5.419,2.469,7.615c-1.583,2.195-2.469,4.85-2.469,7.632c0,2.205,0.545,4.32,1.629,6.297 c1.416,2.53,3.604,4.487,6.198,5.611c-0.63,1.595-0.898,3.306-0.874,5.027c-8.817,6.104-13.968,14.695-15.046,25.121 c-0.316-0.773-0.636-1.547-0.922-2.32c-2.119-5.279-4.302-10.735-6.671-15.832C59.425,81.05,50.668,62.286,29.661,59.083 c-0.109-3.523-1.477-7.021-4.189-9.691c-5.374-5.276-14.678-5.194-19.958,0.195c-2.646,2.685-4.067,6.241-4.037,10.014 c0.046,3.772,1.535,7.301,4.235,9.943c2.658,2.6,6.153,4.04,9.877,4.04c3.814,0,7.407-1.501,10.065-4.226 c1.184-1.215,2.076-2.606,2.731-4.077C43.69,67.45,51.216,78.91,60.582,98.532C50.812,91.021,39.282,89.011,27.094,93.085z M19.729,104.158c-1.483,1.517-3.499,2.357-5.611,2.357c-2.076,0-4.028-0.805-5.52-2.271c-1.501-1.468-2.351-3.44-2.363-5.541 c-0.024-2.095,0.779-4.08,2.244-5.587c1.498-1.522,3.504-2.356,5.621-2.356c2.076,0,4.028,0.797,5.517,2.256 c1.498,1.471,2.338,3.449,2.356,5.547C22.004,100.664,21.206,102.648,19.729,104.158z M35.58,137.332 c-2.962,2.99-8.15,3.039-11.131,0.098c-1.501-1.479-2.35-3.452-2.362-5.553c-0.024-2.096,0.779-4.074,2.244-5.584 c1.498-1.522,3.504-2.356,5.626-2.356c2.07,0,4.028,0.798,5.505,2.247C38.584,129.234,38.627,134.226,35.58,137.332z M92.166,82.127c-0.563-1.029-0.85-2.137-0.85-3.285c0.006-2.04,0.91-3.955,2.457-5.236l2.911-2.402l-2.911-2.399 c-1.559-1.291-2.457-3.193-2.457-5.221c-0.006-1.145,0.28-2.244,0.85-3.261c1.166-2.083,3.346-3.428,5.736-3.498l6.896-0.21 l-4.722-5.039c-1.644-1.753-2.25-4.259-1.595-6.54c0.319-1.105,0.904-2.083,1.702-2.908c1.284-1.285,2.999-1.988,4.825-1.988 l4.342,0.362l-0.347-3.73c-0.189-2.015,0.523-3.992,1.96-5.438c0.798-0.804,1.79-1.397,2.911-1.708 c2.229-0.648,4.792-0.058,6.516,1.583l5.035,4.771l0.231-6.936c0.073-2.393,1.425-4.594,3.501-5.748 c2.759-1.535,6.473-0.822,8.507,1.616l2.405,2.881l2.399-2.893c2.033-2.457,5.742-3.127,8.47-1.61 c2.095,1.153,3.446,3.354,3.508,5.735l0.2,6.936l5.061-4.752c1.735-1.642,4.329-2.232,6.516-1.608 c1.132,0.335,2.118,0.922,2.935,1.739c1.431,1.428,2.149,3.41,1.948,5.443l-0.335,3.742l4.372-0.387 c1.79,0,3.508,0.703,4.78,1.981c0.828,0.819,1.413,1.809,1.724,2.908c0.657,2.326,0.072,4.768-1.608,6.539l-4.737,5.045 l6.905,0.21c2.394,0.07,4.585,1.41,5.748,3.498c0.561,1.011,0.853,2.11,0.841,3.273c0,2.034-0.896,3.937-2.448,5.222l-2.916,2.399 l2.916,2.402c1.553,1.291,2.448,3.191,2.46,5.207c0,1.139-0.292,2.274-0.853,3.273c-1.163,2.083-3.354,3.422-5.748,3.498 l-6.905,0.213l4.737,5.036c1.656,1.754,2.254,4.253,1.596,6.549c-0.329,1.097-0.907,2.101-1.699,2.898 c-1.278,1.285-2.989,1.985-4.81,1.985l-4.354-0.371l0.354,3.732c0.183,2.027-0.529,4.006-1.973,5.438 c-0.804,0.815-1.766,1.4-2.898,1.711c-2.235,0.646-4.799,0.055-6.527-1.583l-5.049-4.756l-0.213,6.93 c-0.073,2.393-1.419,4.585-3.507,5.735c-2.759,1.559-6.431,0.841-8.477-1.619l-2.417-2.893l-2.394,2.893 c-2.033,2.447-5.699,3.178-8.494,1.613c-2.082-1.15-3.428-3.343-3.489-5.736l-0.207-6.953l-5.06,4.779 c-1.724,1.633-4.287,2.235-6.528,1.596c-1.132-0.322-2.101-0.901-2.916-1.711c-1.425-1.431-2.149-3.416-1.949-5.438l0.342-3.732 l-4.345,0.365c-1.821,0-3.532-0.7-4.808-1.985c-0.475-0.475-0.855-1.035-1.172-1.632c0.122-0.061,0.191-0.134,0.316-0.195 c1.522-0.797,2.106-2.688,1.303-4.21c-0.386-0.746-1.047-1.258-1.79-1.501c0.32-0.686,0.685-1.346,1.218-1.909l4.774-5.063 l-6.951-0.186C95.476,85.532,93.332,84.228,92.166,82.127z M21.145,65.044c-1.498,1.52-3.492,2.356-5.617,2.356 c-2.07,0-4.028-0.798-5.514-2.259c-1.501-1.471-2.344-3.44-2.363-5.547c-0.018-2.101,0.786-4.092,2.244-5.587 c1.498-1.522,3.504-2.366,5.639-2.366c2.07,0,4.028,0.801,5.504,2.247C24.138,56.943,24.181,61.951,21.145,65.044z"/> <path d="M140.173,101.917c17.02,0,30.884-13.853,30.884-30.881s-13.864-30.884-30.884-30.884 c-17.025,0-30.884,13.856-30.884,30.884C109.289,88.071,123.136,101.917,140.173,101.917z M118.666,82.813l7.404-7.393 l9.512,9.526l-7.447,7.45C124.134,90.153,120.87,86.834,118.666,82.813z M130.448,71.024l9.536-9.529l9.511,9.529l-9.511,9.526 L130.448,71.024z M140.173,95.685c-1.985,0-3.903-0.301-5.761-0.749l5.578-5.574l5.657,5.66 C143.888,95.423,142.061,95.685,140.173,95.685z M151.974,92.534l-7.575-7.581l9.512-9.526l7.647,7.63 C159.287,87.054,155.999,90.314,151.974,92.534z M164.073,65.273c0.444,1.86,0.748,3.766,0.748,5.763 c0,1.982-0.298,3.885-0.742,5.73l-5.748-5.748L164.073,65.273z M161.546,58.989l-7.624,7.621l-9.523-9.53l7.563-7.557 C155.975,51.73,159.274,54.991,161.546,58.989z M140.173,46.387c1.875,0,3.69,0.256,5.45,0.648l-5.633,5.636l-5.547-5.541 C136.288,46.68,138.188,46.387,140.173,46.387z M128.146,49.648l7.429,7.426l-9.529,9.529l-7.386-7.383 C120.889,55.216,124.158,51.904,128.146,49.648z M115.524,71.042c0-1.891,0.255-3.711,0.657-5.475l5.456,5.456l-5.475,5.468 C115.779,74.72,115.524,72.912,115.524,71.042z"/> </g> </g> </g>
</svg>