<!DOCTYPE svg PUBLIC "-//W3C//DTD SVG 1.1//EN" "http://www.w3.org/Graphics/SVG/1.1/DTD/svg11.dtd">
<!-- Uploaded to: SVG Repo, www.svgrepo.com, Transformed by: SVG Repo Mixer Tools -->
<svg fill="#c46dcf" version="1.1" id="Capa_1" xmlns="http://www.w3.org/2000/svg" xmlns:xlink="http://www.w3.org/1999/xlink" width="800px" height="800px" viewBox="0 0 176.2 176.201" xml:space="preserve" transform="rotate(270)">
<g id="SVGRepo_bgCarrier" stroke-width="0"/>
<g id="SVGRepo_tracerCarrier" stroke-linecap="round" stroke-linejoin="round"/>
<g id="SVGRepo_iconCarrier"> <g> <g> <path d="M0.115,50.009c0,1.2,0.965,2.149,2.16,2.149c0,0,0,0,0.005,0l63.883-0.135c0.625,2.845,1.619,5.632,3.008,8.245 l-66.87,0.163c-1.192,0.006-2.154,0.979-2.154,2.16c0,1.194,0.968,2.148,2.159,2.148c0,0,0,0,0.005,0l69.662-0.155 c5.173,6.729,13.028,10.389,21.065,10.389c2.062,0,4.129-0.309,6.175-0.789l-5.632,5.626c-0.844,0.844-0.844,2.215,0,3.059 c0.422,0.42,0.971,0.631,1.529,0.631s1.107-0.211,1.529-0.631l5.021-5.022c-2.03,10.154,2.004,20.975,11.042,27.15v69.045 c0,1.191,0.96,2.151,2.157,2.151c1.191,0,2.157-0.976,2.157-2.151v-66.535c2.637,1.266,5.421,2.125,8.269,2.626v63.914 c0,1.192,0.97,2.152,2.162,2.152c1.191,0,2.151-0.976,2.151-2.152v-63.45c0.464,0.017,0.918,0.111,1.382,0.111 c2.151,0,4.313-0.222,6.465-0.644c8.11-1.63,15.082-6.207,19.918-12.856c1.208,0.881,2.727,1.729,4.636,1.729l0,0 c1.824,0,3.659-0.802,5.432-2.404c0.442-0.401,0.822-0.876,1.229-1.388c0.907-1.176,1.84-2.373,5.742-3.259 c0.744-0.163,1.34-0.712,1.572-1.439c0.242-0.728,0.089-1.503-0.422-2.094c-0.101-0.116-1.957-2.225-5.2-3.232 c0.147-0.406,0.279-0.802,0.385-1.173c0.438-1.432,0.659-2.139,1.872-2.813c0.696-0.383,1.118-1.129,1.107-1.917 c-0.021-0.794-0.475-1.517-1.187-1.891c-0.221-0.113-2.251-1.103-4.825-1.103c-2.246,0-4.239,0.768-5.843,2.188 c-1.771-2.586-4.061-3.736-4.197-3.812c-0.681-0.335-1.487-0.292-2.131,0.119c-0.638,0.411-1.018,1.139-0.991,1.906 c0.158,4.002-0.775,5.226-1.672,6.415c-0.396,0.52-0.754,1.004-1.018,1.534c-2.742,5.324-0.037,8.324,2.088,10.007 c-4.192,5.806-10.272,9.824-17.35,11.243c-6.839,1.371-13.742,0.095-19.717-3.392c-0.27-0.88-1.065-1.529-2.03-1.529 c-0.116,0-0.2,0.048-0.316,0.063c-4.24-3.122-7.056-7.478-8.301-12.266c1.187,1.529,2.563,2.916,4.219,4.023 c3.649,2.431,7.831,3.707,12.087,3.707c1.308,0,2.626-0.116,3.934-0.358c3.418-0.633,6.46-2.131,9.087-4.192 c0.807,0.285,2.083,0.617,3.517,0.617c1.309,0,2.722-0.29,3.966-1.171c2.215-1.566,3.17-4.435,2.816-8.865 c-0.138-1.556-0.369-4.164,0.796-6.61c0.38-0.789,0.248-1.722-0.332-2.376c-0.591-0.648-1.519-0.892-2.342-0.572 c-1.144,0.403-11.189,4.189-12.624,10.518c-0.312,1.374-0.259,3.312,1.055,5.458c-1.973,1.456-4.225,2.479-6.724,2.942 c-4.451,0.812-9.007-0.11-12.83-2.684c-3.038-2.015-5.084-5.062-5.791-8.572c-0.475-2.365-0.247-4.725,0.56-6.895 c0.464-0.994,0.912-1.967,1.529-2.896c0-0.005,0-0.016,0.011-0.026c3.101-4.25,9.165-5.311,13.742-2.252 c3.555,2.365,4.588,7.08,2.305,10.486c-1.703,2.555-5.227,3.186-7.873,1.432c-1.002-0.653-2.342-0.396-3.006,0.594 c-0.665,0.999-0.386,2.339,0.601,2.998c4.625,3.074,10.832,1.911,13.858-2.61c3.603-5.411,2.03-12.81-3.501-16.496 c-0.791-0.545-1.63-0.978-2.479-1.318c6.012-0.071,10.916-1.875,14.186-5.265c2.278-2.371,2.837-5.864,3.327-8.937 c0.354-2.193,0.754-4.677,1.725-5.363c0.332-0.237,0.564-0.269,0.765-0.269c0.554,0,1.25,0.324,1.936,0.614 c1.655,0.762,3.817,1.15,5.126-0.242c3.053-3.186,1.392-9.418-3.871-14.483c-5.062-4.87-11.676-6.392-14.639-3.277 c-1.698,1.771-0.612,3.947-0.026,5.115c0.732,1.468,0.896,2.035,0.469,2.687c-0.653,1.007-3.011,1.481-5.284,1.94 c-3.059,0.609-6.518,1.318-8.816,3.699c-4.282,4.454-4.899,10.568-4.636,15.175c-0.411-1.448-0.986-2.848-1.851-4.166 c-1.814-2.727-4.578-4.578-7.752-5.21c-3.069-0.593-6.187,0-8.765,1.711c-4.52,3.024-5.701,9.231-2.616,13.84 c0.665,1.01,1.994,1.261,2.996,0.602c0.991-0.659,1.255-2.004,0.601-3.003c-1.756-2.629-1.118-6.167,1.424-7.857 c1.614-1.073,3.581-1.463,5.517-1.068c2.035,0.403,3.817,1.603,4.988,3.364c3.037,4.572,1.993,10.631-2.246,13.732 c-0.011,0.01-0.032,0.01-0.043,0.016c-0.928,0.614-1.914,1.068-2.9,1.534c-5.511,2.002-11.973-0.013-15.467-5.233 c-4.126-6.184-3.765-13.97,0.248-19.52c1.442,0.873,2.792,1.191,3.937,1.191c0.562,0,1.068-0.076,1.521-0.169 c6.333-1.434,10.125-11.485,10.542-12.63c0.295-0.814,0.062-1.742-0.58-2.336c-0.654-0.585-1.593-0.73-2.379-0.343 c-2.42,1.158-5.025,0.937-6.95,0.791c-4.087-0.337-6.956,0.62-8.517,2.829c-1.851,2.618-1.073,5.962-0.543,7.518 c-5.498,7.003-6.178,17.123-0.865,25.075c1.15,1.725,2.608,3.08,4.169,4.261c-4.751-1.202-9.078-3.952-12.221-8.105 c-0.156-0.511-0.485-0.923-0.934-1.197c-4.116-6.265-5.595-13.75-4.126-21.104c1.416-7.08,5.429-13.165,11.248-17.36 c1.184,1.506,2.938,3.243,5.79,3.243c1.329,0,2.706-0.372,4.206-1.145c0.543-0.279,1.018-0.63,1.545-1.021 c1.14-0.873,2.215-1.685,5.537-1.685l0.865,0.016c0.759-0.047,1.477-0.335,1.898-0.976c0.422-0.644,0.464-1.463,0.126-2.138 c-0.068-0.124-1.218-2.426-3.807-4.198c0.791-0.867,1.371-1.877,1.74-2.995c1.233-3.755-0.459-7.301-0.654-7.691 c-0.358-0.712-1.086-1.166-1.888-1.187c-0.839,0.011-1.54,0.411-1.931,1.107c-0.675,1.231-1.397,1.453-2.821,1.883 c-0.363,0.116-0.762,0.231-1.179,0.379c-0.993-3.241-3.093-5.099-3.206-5.2c-0.58-0.509-1.363-0.67-2.091-0.422 c-0.722,0.237-1.268,0.831-1.437,1.577c-0.886,3.91-2.094,4.844-3.272,5.75c-0.512,0.398-0.979,0.783-1.382,1.226 c-3.937,4.358-2.251,7.873-0.664,10.049c-6.647,4.838-11.249,11.814-12.862,19.92c-0.606,3.03-0.757,6.049-0.52,9.052 L2.269,47.834C1.074,47.855,0.109,48.833,0.115,50.009z M155.713,86.568c0.158-0.322,0.38-0.583,0.611-0.896 c0.902-1.182,1.74-2.452,2.199-4.454c0.332,0.562,0.606,1.192,0.807,1.917c0.232,0.865,0.981,1.495,1.872,1.588 c0.912,0.14,1.746-0.372,2.146-1.176c0.949-1.915,2.278-2.874,4.05-2.977c-0.354,0.741-0.58,1.464-0.785,2.139 c-0.322,1.015-0.575,1.896-1.261,2.782c-0.49,0.646-0.569,1.521-0.222,2.254c0.358,0.728,1.097,1.208,1.914,1.229 c0.707,0.011,1.355,0.11,1.936,0.285c-1.824,0.97-2.826,2.109-3.738,3.27c-0.228,0.316-0.438,0.585-0.702,0.822 c-0.959,0.859-1.813,1.298-2.541,1.298c-1.008,0-2.025-0.834-3.012-1.646l-1.514-1.166 C155.206,90.211,154.268,89.368,155.713,86.568z M135.573,84.392c0.459-2.035,3.159-4.105,5.933-5.621 c-0.158,1.737-0.011,3.282,0.074,4.385c0.189,2.381-0.164,4.045-1.013,4.636c-0.348,0.258-0.833,0.337-1.345,0.342 c0.237-0.326,0.532-0.585,0.754-0.917c0.665-0.999,0.401-2.339-0.585-3.003c-1.008-0.651-2.347-0.388-3.001,0.601 c-0.222,0.335-0.495,0.578-0.738,0.896C135.452,85.067,135.526,84.603,135.573,84.392z M120.834,42.795 c1.36-1.402,3.997-1.933,6.561-2.457c3.153-0.631,6.418-1.29,8.058-3.815c1.846-2.837,0.554-5.435-0.232-6.972 c-0.068-0.143-0.142-0.324-0.231-0.478c0.253-0.087,0.527-0.108,0.77-0.108c1.54,0,4.388,0.994,7.277,3.776 c3.228,3.098,4.388,6.431,4.003,7.889c-0.164-0.076-0.332-0.134-0.48-0.211c-1.787-0.799-4.725-1.545-6.971,0.042 c-2.463,1.735-2.996,5.044-3.502,8.216c-0.411,2.578-0.844,5.241-2.184,6.634c-3.143,3.259-7.91,3.934-11.358,3.934 c-0.791,0-1.487-0.044-2.173-0.105l3.153-3.148c0.918,0.457,1.909,0.762,2.953,0.762c1.835,0,3.628-0.762,4.904-2.088 c2.595-2.7,2.5-7.011-0.2-9.595c-2.605-2.534-7.082-2.404-9.582,0.188c-1.26,1.308-1.936,3.035-1.903,4.838 c0.021,1.016,0.311,1.978,0.749,2.864l-2.964,2.969C117.059,52.132,117.248,46.516,120.834,42.795z M123.998,50.049 c-0.011-0.665,0.222-1.287,0.686-1.762c0.475-0.501,1.107-0.767,1.793-0.767c0.633,0,1.239,0.243,1.703,0.686 c0.986,0.952,1.019,2.518,0.079,3.488c-0.748,0.789-1.951,0.917-2.9,0.454c-0.105-0.222-0.231-0.438-0.405-0.614 c-0.201-0.2-0.433-0.335-0.676-0.443C124.104,50.766,123.998,50.421,123.998,50.049z M113.642,59.568 c0.01,0.061,0.021,0.113,0.031,0.168l-0.053,0.058C113.631,59.72,113.642,59.649,113.642,59.568z M88.308,35.566 c0.599-0.854,2.246-1.211,5.01-0.994c0.907,0.076,2.352,0.189,4.019,0.042c-1.524,2.776-3.592,5.477-5.622,5.94 c-0.216,0.05-0.675,0.113-1.323-0.079c0.309-0.24,0.562-0.52,0.892-0.741c0.991-0.664,1.255-2.004,0.596-3.003 s-1.999-1.247-2.998-0.593c-0.335,0.227-0.599,0.52-0.918,0.767C87.983,36.396,88.06,35.911,88.308,35.566z M82.768,11.584 c0.237-0.271,0.522-0.469,0.82-0.701c1.171-0.92,2.31-1.925,3.272-3.739c0.161,0.572,0.269,1.221,0.279,1.923 c0.013,0.799,0.482,1.55,1.21,1.911c0.735,0.358,1.604,0.288,2.252-0.216c0.901-0.681,1.771-0.949,2.79-1.258 c0.675-0.208,1.424-0.43,2.167-0.799c-0.11,1.405-0.807,2.963-3.001,4.071c-0.801,0.406-1.271,1.255-1.184,2.138 c0.103,0.896,0.735,1.648,1.596,1.88c0.738,0.195,1.36,0.48,1.914,0.799c-2.252,0.519-3.488,1.463-4.464,2.205 c-0.304,0.221-0.575,0.453-0.892,0.608c-2.55,1.308-3.62,0.53-5.271-1.767l-1.155-1.5C81.389,15.034,80.65,13.923,82.768,11.584z"/> </g> </g> </g>
</svg>