<!DOCTYPE svg PUBLIC "-//W3C//DTD SVG 1.1//EN" "http://www.w3.org/Graphics/SVG/1.1/DTD/svg11.dtd">
<!-- Uploaded to: SVG Repo, www.svgrepo.com, Transformed by: SVG Repo Mixer Tools -->
<svg fill="#c46dcf" version="1.1" id="Capa_1" xmlns="http://www.w3.org/2000/svg" xmlns:xlink="http://www.w3.org/1999/xlink" width="800px" height="800px" viewBox="0 0 238.689 238.689" xml:space="preserve" stroke="#c46dcf">
<g id="SVGRepo_bgCarrier" stroke-width="0"/>
<g id="SVGRepo_tracerCarrier" stroke-linecap="round" stroke-linejoin="round"/>
<g id="SVGRepo_iconCarrier"> <g> <g> <path d="M32.885,121.637c10.327,0,18.727-8.402,18.727-18.727c0-10.327-8.4-18.728-18.727-18.728 c-10.324,0-18.718,8.4-18.718,18.728C14.167,113.235,22.561,121.637,32.885,121.637z M32.885,116.645 c-0.679,0-1.333-0.104-1.988-0.195l1.885-1.888l1.9,1.905C34.084,116.542,33.497,116.645,32.885,116.645z M28.16,102.895 l4.622-4.612l4.619,4.612l-4.619,4.616L28.16,102.895z M39.915,114.653l-3.611-3.613l4.619-4.616l3.635,3.644 C43.397,111.944,41.808,113.508,39.915,114.653z M46.424,100.913c0.091,0.655,0.198,1.309,0.198,1.988 c0,0.676-0.106,1.325-0.198,1.973l-1.985-1.985L46.424,100.913z M39.893,91.155c1.903,1.135,3.492,2.701,4.658,4.576l-3.635,3.636 l-4.619-4.613L39.893,91.155z M32.885,89.173c0.606,0,1.187,0.104,1.772,0.18l-1.875,1.878l-1.86-1.86 C31.563,89.271,32.212,89.173,32.885,89.173z M25.733,91.238l3.517,3.516l-4.619,4.613l-3.486-3.486 C22.287,93.987,23.852,92.394,25.733,91.238z M24.631,106.417l4.619,4.616l-3.529,3.529c-1.881-1.16-3.44-2.749-4.582-4.652 L24.631,106.417z M19.15,102.911c0-0.612,0.107-1.2,0.18-1.791l1.778,1.775l-1.778,1.778 C19.257,104.085,19.15,103.507,19.15,102.911z"/> <path d="M1.047,111.484c0.792,1.419,1.979,2.555,3.38,3.291c-0.466,1.517-0.506,3.16-0.049,4.713 c0.38,1.358,1.111,2.595,2.101,3.581c1.136,1.133,2.539,1.899,4.064,2.229c0.338,1.521,1.105,2.935,2.235,4.067 c0.983,0.986,2.208,1.705,3.565,2.101c1.547,0.444,3.218,0.426,4.726-0.043c0.743,1.407,1.884,2.588,3.306,3.374 c2.63,1.449,5.992,1.303,8.455-0.269c1.315,0.841,2.856,1.297,4.458,1.297c0.587,0,1.154-0.097,1.708-0.213 c0.088,0.749,0.225,1.498,0.369,2.254c0.131,0.742,0.326,1.455,0.511,2.197c0.231,0.865,0.493,1.718,0.798,2.576 c1.717,4.914,4.545,9.262,8.281,12.732c7.264,7.16,18.35,12.336,33.14,13c1.428,0.073,2.813,0.104,4.153,0.104 c17.211,0,27.31-5.097,33.11-10.004c5.8,4.914,15.896,10.004,33.115,10.004c1.34,0,2.729-0.03,4.153-0.104 c14.784-0.664,25.866-5.846,33.137-13c3.739-3.465,6.564-7.818,8.281-12.732c0.305-0.853,0.561-1.711,0.792-2.576 c0.188-0.73,0.39-1.449,0.512-2.197c0.14-0.756,0.28-1.505,0.377-2.254c2.107,0.438,4.36,0.073,6.162-1.084 c1.315,0.841,2.851,1.297,4.458,1.297c1.388,0,2.776-0.358,3.994-1.028c1.425-0.786,2.569-1.967,3.312-3.374 c1.498,0.469,3.166,0.494,4.726,0.043c1.352-0.384,2.581-1.114,3.568-2.106c1.132-1.139,1.899-2.546,2.229-4.062 c1.516-0.342,2.923-1.103,4.049-2.223c0.999-0.999,1.724-2.223,2.107-3.568c0.45-1.564,0.42-3.215-0.049-4.737 c1.406-0.743,2.594-1.891,3.397-3.331c0.664-1.257,1.011-2.6,1.011-3.985c0-1.602-0.463-3.136-1.291-4.451 c0.841-1.309,1.291-2.855,1.291-4.451c0-1.379-0.359-2.749-1.023-4.003c-0.791-1.428-1.979-2.563-3.385-3.303 c0.469-1.522,0.511-3.163,0.049-4.722c-0.384-1.339-1.097-2.573-2.095-3.571c-1.139-1.136-2.546-1.903-4.074-2.232 c-0.335-1.522-1.102-2.938-2.229-4.067c-0.999-0.996-2.241-1.727-3.556-2.095c-1.547-0.454-3.228-0.436-4.744,0.04 c-0.736-1.404-1.881-2.588-3.306-3.374c-2.631-1.455-5.992-1.303-8.452,0.268c-2.479-1.586-5.846-1.717-8.445-0.262 c-1.432,0.786-2.57,1.97-3.307,3.374c-1.498-0.469-3.148-0.5-4.756-0.046c-1.346,0.399-2.569,1.13-3.538,2.101 c-1.139,1.136-1.894,2.545-2.229,4.068c-1.522,0.329-2.935,1.096-4.067,2.232c-0.986,0.992-1.705,2.219-2.095,3.559 c-0.45,1.565-0.414,3.212,0.049,4.729c-1.4,0.74-2.594,1.881-3.386,3.315c-0.67,1.224-1.022,2.6-1.022,3.998 c0,1.601,0.45,3.142,1.291,4.458c-0.841,1.309-1.291,2.85-1.291,4.445c0,1.404,0.353,2.789,1.035,4.025 c0.791,1.425,1.973,2.561,3.373,3.304c-0.463,1.521-0.499,3.166-0.049,4.719c0.39,1.352,1.108,2.582,2.095,3.58 c1.133,1.139,2.533,1.9,4.08,2.235c0.328,1.522,1.096,2.929,2.216,4.056c0.993,1.004,2.205,1.711,3.575,2.118 c1.534,0.438,3.221,0.421,4.73-0.048c0.201,0.389,0.512,0.718,0.779,1.071c-0.055,6.984-3.196,14.097-9.188,19.765 c-0.742,0.646-1.467,1.322-2.289,1.889c-0.104,0.091-0.213,0.158-0.329,0.243c-4.22,2.825-9.268,4.481-14.705,4.481 c-11.436,0-20.739-9.298-20.739-20.728c0-8.22,6.235-14.942,14.206-15.898c0.383,0.98,0.974,1.888,1.741,2.648 c1.468,1.438,3.41,2.229,5.468,2.229c2.107,0,4.086-0.828,5.571-2.338c1.468-1.492,2.26-3.465,2.235-5.548 c-0.013-2.082-0.847-4.03-2.339-5.498c-2.965-2.932-8.116-2.868-11.039,0.104c-0.944,0.962-1.498,2.168-1.839,3.435 c-4.385,0.438-8.354,2.186-11.533,4.907c-1.632-3.281-4.98-6.454-11.983-6.454c-7.696,0-16.039,3.934-16.38,4.104 c-0.825,0.39-1.367,1.199-1.416,2.112c-0.052,0.907,0.405,1.778,1.185,2.259c4.214,2.595,5.882,4.543,7.076,6.668 c2.788,4.951,5.699,9.402,10.704,9.402c0.841,0,1.705-0.129,2.631-0.384c0.329-0.092,0.561-0.231,0.858-0.341 c0.621,11.118,8.275,20.301,18.627,23.229c-1.669,0.22-3.246,0.518-5.054,0.609c-17.829,0.798-27.962-3.915-33.552-8.519 c4.177-4.896,6.564-10.699,6.564-16.733c0-1.382-1.121-2.49-2.497-2.49c-1.363,0-2.49,1.114-2.49,2.49 c0,4.615-1.869,9.249-5.057,13.159c-3.188-3.91-5.057-8.544-5.057-13.159c0-1.382-1.117-2.49-2.493-2.49 c-1.379,0-2.494,1.114-2.494,2.49c0,6.028,2.387,11.831,6.564,16.733c-5.568,4.597-15.643,9.316-33.557,8.512 c-1.791-0.085-3.379-0.383-5.051-0.608c10.352-2.929,18.015-12.105,18.63-23.23c0.295,0.11,0.533,0.25,0.862,0.341 c0.928,0.262,1.79,0.384,2.636,0.384c4.997,0,7.913-4.444,10.696-9.396c1.203-2.137,2.868-4.073,7.082-6.668 c0.78-0.48,1.236-1.352,1.185-2.259c-0.049-0.913-0.591-1.723-1.416-2.112c-0.353-0.171-8.689-4.104-16.379-4.104 c-7.002,0-10.361,3.173-11.984,6.454c-3.178-2.722-7.146-4.463-11.529-4.907c-0.347-1.272-0.893-2.473-1.839-3.435 c-2.929-2.983-8.08-3.035-11.042-0.109c-1.489,1.467-2.326,3.416-2.338,5.498c-0.018,2.083,0.773,4.056,2.238,5.548 c1.479,1.51,3.462,2.338,5.575,2.338c2.058,0,3.998-0.792,5.462-2.229c0.779-0.761,1.355-1.669,1.748-2.649 c7.974,0.95,14.209,7.673,14.209,15.899c0,11.429-9.301,20.728-20.736,20.728c-5.444,0-10.507-1.656-14.718-4.481 c-0.112-0.085-0.222-0.152-0.329-0.244c-0.819-0.56-1.541-1.235-2.29-1.888c-5.992-5.669-9.128-12.781-9.18-19.766 c0.271-0.353,0.576-0.676,0.78-1.071c1.51,0.469,3.188,0.487,4.734,0.049c1.364-0.396,2.569-1.114,3.565-2.112 c1.136-1.133,1.897-2.54,2.226-4.056c1.535-0.341,2.944-1.103,4.074-2.235c0.99-0.998,1.714-2.223,2.083-3.537 c0.46-1.565,0.429-3.222-0.042-4.75c1.4-0.742,2.591-1.885,3.379-3.303c0.673-1.218,1.026-2.6,1.026-4.01 c0-1.598-0.454-3.139-1.297-4.448c0.843-1.315,1.297-2.856,1.297-4.458c0-1.388-0.353-2.774-1.026-4.003 c-0.789-1.428-1.979-2.561-3.389-3.304c0.469-1.522,0.505-3.166,0.058-4.731c-0.387-1.343-1.111-2.569-2.101-3.562 c-1.136-1.135-2.539-1.903-4.067-2.232c-0.335-1.528-1.103-2.938-2.232-4.064c-0.971-0.974-2.195-1.705-3.559-2.109 c-1.553-0.441-3.224-0.423-4.734,0.052c-0.74-1.397-1.881-2.588-3.303-3.374c-2.618-1.453-5.979-1.322-8.455,0.262 c-2.463-1.571-5.831-1.723-8.455-0.268c-1.422,0.786-2.563,1.97-3.306,3.374c-1.513-0.475-3.221-0.481-4.713-0.045 c-1.339,0.38-2.582,1.105-3.577,2.104c-1.136,1.126-1.897,2.542-2.235,4.064C9,81.078,7.596,81.839,6.461,82.974 c-0.999,0.999-1.72,2.232-2.095,3.554c-0.457,1.564-0.417,3.218,0.048,4.74c-1.409,0.749-2.6,1.888-3.392,3.331 C0.356,95.826,0,97.205,0,98.581c0,1.601,0.457,3.136,1.297,4.451C0.463,104.347,0,105.888,0,107.493 C0.012,108.844,0.356,110.187,1.047,111.484z M193.952,125.906c-0.84,0.798-2.082,1.097-3.166,0.773 c-0.548-0.152-1.023-0.438-1.425-0.84c-0.682-0.688-1.035-1.656-0.938-2.625l-0.269-2.71h-2.74c-0.889,0-1.723-0.34-2.344-0.961 c-0.384-0.391-0.67-0.877-0.822-1.432c-0.329-1.096-0.024-2.308,0.768-3.154l3.8-4.037l-5.542-0.167 c-1.169-0.037-2.229-0.667-2.788-1.696c-0.269-0.487-0.402-1.022-0.402-1.592c0-0.978,0.427-1.9,1.182-2.524l2.326-1.921 l-2.326-1.918c-0.755-0.63-1.182-1.553-1.182-2.539c0-0.561,0.134-1.097,0.402-1.583c0.56-1.029,1.619-1.666,2.788-1.696 l5.542-0.167l-3.8-4.037c-0.804-0.859-1.097-2.043-0.779-3.172c0.158-0.536,0.438-1.011,0.84-1.41 c0.627-0.625,1.638-0.922,2.624-0.947l2.99,0.286l-0.268-2.999c-0.098-0.986,0.256-1.945,0.949-2.643 c0.39-0.393,0.877-0.682,1.413-0.844c1.084-0.316,2.326-0.018,3.166,0.78l4.044,3.812l0.158-5.557 c0.036-1.16,0.682-2.226,1.692-2.795c1.327-0.74,3.13-0.405,4.11,0.779l1.918,2.32l1.937-2.314 c0.986-1.184,2.776-1.535,4.128-0.786c1.011,0.563,1.656,1.635,1.693,2.795l0.177,5.547l4.024-3.815 c0.841-0.785,1.979-1.108,3.185-0.761c0.53,0.143,0.993,0.426,1.407,0.822c0.693,0.694,1.035,1.653,0.949,2.64l0.28,2.701h2.728 c0.89,0,1.712,0.341,2.339,0.965c0.396,0.399,0.676,0.868,0.828,1.416c0.341,1.129,0.042,2.313-0.768,3.166l-3.8,4.034l5.541,0.17 c1.182,0.037,2.229,0.667,2.789,1.677c0.269,0.512,0.414,1.054,0.414,1.608c0,0.98-0.438,1.903-1.193,2.524l-2.313,1.921 l2.313,1.921c0.768,0.63,1.193,1.559,1.199,2.542c0,0.551-0.14,1.099-0.396,1.586c-0.572,1.029-1.619,1.665-2.789,1.696 l-5.577,0.149l3.812,4.056c0.804,0.847,1.097,2.059,0.768,3.185c-0.134,0.523-0.427,1.005-0.816,1.395 c-0.639,0.627-1.638,0.877-2.643,0.956l-2.983-0.268l0.28,2.983c0.085,0.974-0.269,1.942-0.962,2.643 c-0.384,0.39-0.865,0.67-1.413,0.834c-1.096,0.317-2.313,0.024-3.179-0.779l-4.031-3.812l-0.158,5.559 c-0.036,1.17-0.682,2.229-1.692,2.783c-1.389,0.749-3.154,0.402-4.129-0.779l-1.924-2.32l-1.931,2.32 c-0.98,1.188-2.746,1.534-4.122,0.779c-1.011-0.554-1.662-1.619-1.687-2.776l-0.171-5.56L193.952,125.906z M167.068,117.338 c0.542-0.542,1.255-0.846,2.022-0.846c0.736,0,1.431,0.279,1.954,0.803c0.548,0.53,0.841,1.242,0.853,1.998 c0.006,0.749-0.28,1.455-0.804,1.991c-0.536,0.542-1.248,0.853-2.016,0.853c-0.743,0-1.443-0.293-1.967-0.811 c-0.536-0.529-0.847-1.236-0.858-1.99C166.252,118.581,166.544,117.875,167.068,117.338z M145.975,126.551 c-3.58-4.762-8.481-4.53-8.726-4.494c-1.37,0.116-2.405,1.31-2.289,2.686c0.109,1.37,1.267,2.314,2.679,2.29 c0.049,0,3.532-0.177,5.554,4.573c0.085,0.566,0.085,1.266-0.207,1.869c-0.354,0.719-1.157,1.26-2.399,1.613 c-2.387,0.682-3.617,0.444-7.623-6.661c-1.23-2.187-2.74-3.989-4.896-5.736c2.783-0.956,6.589-1.979,10.097-1.979 c5.833,0,7.38,2.808,8.019,4.865C146.225,125.76,146.14,126.186,145.975,126.551z M71.615,121.321 c-1.081,1.06-2.932,1.035-3.991-0.043c-0.524-0.535-0.81-1.242-0.804-1.99c0.006-0.756,0.305-1.462,0.853-1.998 c0.524-0.518,1.224-0.797,1.964-0.797c0.767,0,1.486,0.298,2.021,0.846c0.524,0.53,0.81,1.242,0.804,1.998 C72.455,120.09,72.15,120.797,71.615,121.321z M100.562,120.718c3.499,0,7.298,1.022,10.09,1.979 c-2.144,1.741-3.672,3.55-4.902,5.736c-4,7.106-5.225,7.344-7.624,6.655c-1.218-0.354-2.021-0.889-2.372-1.596 c-0.299-0.608-0.292-1.32-0.204-1.918c1.933-4.518,5.188-4.591,5.575-4.549c1.339,0.056,2.536-0.932,2.643-2.289 c0.106-1.376-0.917-2.576-2.295-2.686c-0.241-0.018-5.148-0.262-8.723,4.5c-0.155-0.377-0.244-0.779-0.216-0.926 C93.183,123.519,94.726,120.718,100.562,120.718z M6.193,101.081c-0.761-0.63-1.19-1.55-1.19-2.524 c0-0.554,0.137-1.096,0.405-1.583c0.566-1.029,1.614-1.665,2.792-1.695l5.544-0.171l-3.803-4.034 c-0.81-0.858-1.099-2.043-0.768-3.185c0.143-0.529,0.423-0.998,0.822-1.397c0.624-0.624,1.522-0.983,2.646-0.946l2.987,0.273 l-0.277-2.986c-0.091-0.986,0.256-1.945,0.95-2.637c0.399-0.399,0.871-0.682,1.428-0.837c1.09-0.329,2.313-0.024,3.148,0.773 l4.028,3.818l0.174-5.55c0.039-1.166,0.688-2.232,1.702-2.795c1.355-0.746,3.145-0.399,4.128,0.786l1.927,2.313l1.915-2.319 c0.977-1.19,2.78-1.52,4.113-0.78c1.017,0.563,1.666,1.635,1.699,2.795l0.162,5.556l4.04-3.812 c0.84-0.798,2.143-1.065,3.148-0.786c0.554,0.162,1.042,0.451,1.434,0.85c0.7,0.697,1.042,1.659,0.953,2.643l0.301,2.701h2.731 c0.874,0,1.696,0.341,2.32,0.959c0.399,0.398,0.679,0.874,0.828,1.41c0.326,1.135,0.037,2.32-0.773,3.178l-3.802,4.037 l5.544,0.168c1.178,0.036,2.226,0.667,2.792,1.689c0.268,0.499,0.411,1.035,0.411,1.596c0,0.986-0.436,1.909-1.19,2.539 l-2.32,1.918l2.32,1.921c0.761,0.63,1.19,1.553,1.19,2.527c0,0.566-0.137,1.102-0.405,1.589c-0.572,1.029-1.613,1.666-2.798,1.696 l-5.544,0.167l3.802,4.037c0.798,0.847,1.1,2.059,0.768,3.185c-0.143,0.523-0.429,1.011-0.816,1.4 c-0.618,0.621-1.343,1.012-2.652,0.95l-2.993-0.268l0.287,2.989c0.094,0.975-0.253,1.937-0.947,2.625 c-0.399,0.396-0.88,0.676-1.422,0.846c-1.103,0.316-2.326,0.013-3.161-0.773l-4.04-3.812l-0.161,5.56 c-0.034,1.163-0.682,2.217-1.69,2.783c-1.373,0.742-3.145,0.401-4.128-0.779l-1.921-2.326l-1.921,2.326 c-0.983,1.187-2.761,1.527-4.128,0.779c-1.008-0.561-1.65-1.626-1.69-2.789l-0.161-5.56l-4.04,3.812 c-0.847,0.798-2.083,1.084-3.167,0.779c-0.551-0.152-1.029-0.438-1.416-0.834c-0.7-0.7-1.047-1.674-0.962-2.648l-0.274-2.704 H12.34c-0.886,0-1.714-0.341-2.344-0.974c-0.387-0.391-0.667-0.865-0.822-1.413c-0.326-1.103-0.024-2.319,0.773-3.16l3.815-4.056 l-5.569-0.149c-1.172-0.031-2.213-0.667-2.767-1.66c-0.28-0.523-0.423-1.071-0.423-1.613c0-0.999,0.436-1.927,1.196-2.558 l2.314-1.921L6.193,101.081z"/> <path d="M224.568,102.911c0-10.327-8.409-18.728-18.718-18.728c-10.327,0-18.73,8.4-18.73,18.728 c0,10.324,8.403,18.727,18.73,18.727C216.159,121.637,224.568,113.235,224.568,102.911z M219.392,101.12 c0.086,0.59,0.183,1.172,0.183,1.791c0,0.603-0.104,1.175-0.183,1.763l-1.771-1.778L219.392,101.12z M213.005,114.568 l-3.526-3.528l4.622-4.616l3.501,3.501C216.458,111.813,214.899,113.408,213.005,114.568z M205.959,107.511l-4.628-4.616 l4.628-4.612l4.616,4.612L205.959,107.511z M212.999,91.238c1.876,1.156,3.446,2.749,4.579,4.643l-3.489,3.486l-4.609-4.613 L212.999,91.238z M205.838,89.173c0.676,0,1.327,0.104,1.967,0.198l-1.863,1.86l-1.882-1.878 C204.657,89.271,205.235,89.173,205.838,89.173z M198.835,91.155l3.593,3.599l-4.616,4.613l-3.641-3.636 C195.34,93.856,196.929,92.297,198.835,91.155z M192.295,104.88c-0.091-0.648-0.194-1.297-0.194-1.97 c0-0.683,0.109-1.337,0.194-1.991l1.979,1.976L192.295,104.88z M198.811,114.653c-1.894-1.145-3.489-2.709-4.64-4.585l3.629-3.644 l4.628,4.616L198.811,114.653z M205.959,114.562l1.876,1.888c-0.646,0.098-1.304,0.195-1.985,0.195 c-0.621,0-1.193-0.104-1.79-0.178L205.959,114.562z"/> </g> </g> </g>
</svg>