<!DOCTYPE svg PUBLIC "-//W3C//DTD SVG 1.1//EN" "http://www.w3.org/Graphics/SVG/1.1/DTD/svg11.dtd">
<!-- Uploaded to: SVG Repo, www.svgrepo.com, Transformed by: SVG Repo Mixer Tools -->
<svg width="800px" height="800px" viewBox="-3.41 0 183.79 183.79" xmlns="http://www.w3.org/2000/svg" fill="#c46dcf">
<g id="SVGRepo_bgCarrier" stroke-width="0"/>
<g id="SVGRepo_tracerCarrier" stroke-linecap="round" stroke-linejoin="round"/>
<g id="SVGRepo_iconCarrier"> <defs> <style>.cls-1{fill:#ffffff;}</style> </defs> <g id="Layer_2" data-name="Layer 2"> <g id="Layer_1-2" data-name="Layer 1"> <path d="M41.43,87.43c-2.62-1.17-4.18-1.81-5.69-2.54A42.67,42.67,0,0,1,19,70.58c-5.44-7.88-6.47-16.4-3.67-25.36C18,36.57,24.71,30.8,36,33.42c7.14,1.65,13.81,5.3,20.68,8.09,1.26.52,2.45,1.21,3.42,1.69,2.08-1.2,1.74-2.74,1.44-4-2.4-10.6,1.51-19.72,6.83-28.4a21.58,21.58,0,0,1,5.9-6.11c11.62-8.16,31.82-5.19,40.61,5.85,3,3.68,4.65,7.83,4.21,12.7-.33,3.63-.5,7.27-.79,11.63,2.68-1.39,4.71-2.36,6.66-3.46,10.9-6.18,22.22-6.68,33.9-2.58a47.34,47.34,0,0,1,4.84,1.77,21.79,21.79,0,0,1,11.95,13.62C178,51.34,177,57.36,174.22,64,168.71,77.31,159,85.74,145.68,90.54A41,41,0,0,0,142,92.38a68.91,68.91,0,0,0,7.17,3.94,59.43,59.43,0,0,1,19.27,12.61,24.61,24.61,0,0,1,7.83,16.65c.48,9.35-6.85,19.15-16.38,21.58a39.76,39.76,0,0,1-32.1-5.16c-2.59-1.63-5.14-3.31-8.49-5.48-.29,2.19-.75,3.51-.58,4.75,1.53,11.38-.87,22.23-5,32.68-1.91,4.88-5.49,8.33-11.41,9.15-4.3.61-8.42,1.1-12.7.17a20.8,20.8,0,0,1-13.18-8.88c-5.1-7.48-8.41-15.61-8.54-24.81,0-4,0-8,0-12.8a17.91,17.91,0,0,0-3.32,1.75c-8.76,7.73-18.67,13.27-30.23,15.4-12.51,2.31-23.17-1-31.38-11.1C.74,140.07-.81,131.7.45,127.2,2.07,121.42,4.18,115.84,8,111c8-10,17.45-17.89,29.81-21.89C38.63,88.86,39.36,88.41,41.43,87.43Zm75.75-.32c6.21-1.15,11.51-2,16.76-3.13,2.51-.52,4.92-1.47,7.42-2.06C152.23,79.35,159,72.05,164,62.57c3.71-7.09,2.08-13.9-1.18-20.45a10.26,10.26,0,0,0-5-4.44c-5.83-2.4-11.69-3.63-18.27-2-11.25,2.84-17.24,11.49-23.84,19.66-.79,4.72-4.27,7.92-6.66,11.73-2.55,4.09-2.73,5,.47,8C112.85,78.27,115.9,81.55,117.18,87.11Zm-54.59,9A26.55,26.55,0,0,0,60,95.44c-8.61-1.26-16.37,2-23.9,5.2-10,4.21-17.5,11.6-22.46,21.39a27.87,27.87,0,0,0-2.85,14.08c.16,3.83,1.74,6.6,5.68,7.51a74.77,74.77,0,0,0,7.51,1.45c8.66,1.06,16.09-2.91,23.64-6.14a26.18,26.18,0,0,0,7.05-4.66,79.58,79.58,0,0,0,14.2-17,37.55,37.55,0,0,0,2.26-5.06c-1.91-2.78-3.78-5-5.08-7.5A86.13,86.13,0,0,1,62.59,96.1ZM94.74,67a37.26,37.26,0,0,0,2.65-5c2.59-7,4.82-14.08,7.59-21,2.54-6.33,2.15-12.92,2.43-19.45A9.7,9.7,0,0,0,106,16.78c-3.45-6.18-15.87-10-22.19-7a5.15,5.15,0,0,0-1.42,1C75.6,17.39,70.92,25,72.37,35c1.28,8.86,4.39,17.19,8.21,25.22C83.68,66.77,86.36,67.94,94.74,67Zm16.35,40.39c2,5.47,5.63,9.12,9,13a54.73,54.73,0,0,0,29.26,18.11,15.59,15.59,0,0,0,15-3.92,7.53,7.53,0,0,0,2.24-8.54c-2.11-6-5.15-11.28-10.6-15.12-10-7-21.2-11-32.9-13.81-2.14-.51-4.5-.07-6.89-.07Zm-11.51,9.26L84.11,118c-6.57,16.3-9.06,32.17-.69,48.23a23.93,23.93,0,0,0,2.64,4.38c2.68,3.2,6.36,5.44,10.37,5.1,4.4-.38,6.16-4.35,7.75-8.2,2.67-6.48,3.23-13.23,3.75-20.08C108.79,136.23,105.76,126.19,99.58,116.65ZM74.35,70.31c-3.3-4-6.25-7.81-9.54-11.34C62.5,56.5,60,53.83,57.08,52.34c-6.58-3.32-13.51-6-20.31-8.85a11.73,11.73,0,0,0-2.46-.71c-6.92-1.24-11.68,2.69-12,9.66-.19,4.78,1,9,4.35,12.53,3.88,4.13,7.07,9.18,12.68,11.16,6.44,2.27,13.06,4.06,19.62,6,2.48.71,5,1.07,7.59-.48Zm31.37,19.84a13.48,13.48,0,0,0-4.3-10.65c-2.7-2.64-6-2.67-9.41-3.14-6.86-.94-12.41,3.21-14.49,9.32a49.37,49.37,0,0,0-2.67,10.69c-.45,4.29,1.62,7.66,5.59,9.67C87.05,109.39,94,108.21,99,102.7,102.43,98.88,105.44,94.75,105.72,90.15Z"/> <path class="cls-1" d="M117.18,87.11c-1.28-5.56-4.33-8.84-7.7-12-3.2-3-3-3.94-.47-8,2.39-3.81,5.87-7,6.66-11.73,6.6-8.17,12.59-16.82,23.84-19.66,6.58-1.65,12.44-.42,18.27,2a10.26,10.26,0,0,1,5,4.44c3.26,6.55,4.89,13.36,1.18,20.45-5,9.48-11.72,16.78-22.59,19.35-2.5.59-4.91,1.54-7.42,2.06C128.69,85.06,123.39,86,117.18,87.11Z"/> <path class="cls-1" d="M62.59,96.1A86.13,86.13,0,0,0,66,104.71c1.3,2.51,3.17,4.72,5.08,7.5a37.55,37.55,0,0,1-2.26,5.06,79.58,79.58,0,0,1-14.2,17,26.18,26.18,0,0,1-7.05,4.66c-7.55,3.23-15,7.2-23.64,6.14a74.77,74.77,0,0,1-7.51-1.45c-3.94-.91-5.52-3.68-5.68-7.51A27.87,27.87,0,0,1,13.6,122c5-9.79,12.44-17.18,22.46-21.39,7.53-3.17,15.29-6.46,23.9-5.2A26.55,26.55,0,0,1,62.59,96.1Z"/> <path class="cls-1" d="M94.74,67c-8.38.94-11.06-.23-14.16-6.76-3.82-8-6.93-16.36-8.21-25.22-1.45-10,3.23-17.63,10-24.33a5.15,5.15,0,0,1,1.42-1c6.32-3,18.74.87,22.19,7.05a9.7,9.7,0,0,1,1.45,4.83c-.28,6.53.11,13.12-2.43,19.45-2.77,6.9-5,14-7.59,21A37.26,37.26,0,0,1,94.74,67Z"/> <path class="cls-1" d="M111.09,107.39l5.09-10.31c2.39,0,4.75-.44,6.89.07C134.77,99.94,146,103.91,156,111c5.45,3.84,8.49,9.1,10.6,15.12a7.53,7.53,0,0,1-2.24,8.54,15.59,15.59,0,0,1-15,3.92,54.73,54.73,0,0,1-29.26-18.11C116.72,116.51,113.14,112.86,111.09,107.39Z"/> <path class="cls-1" d="M99.58,116.65c6.18,9.54,9.21,19.58,8.35,30.82-.52,6.85-1.08,13.6-3.75,20.08-1.59,3.85-3.35,7.82-7.75,8.2-4,.34-7.69-1.9-10.37-5.1a23.93,23.93,0,0,1-2.64-4.38c-8.37-16.06-5.88-31.93.69-48.23Z"/> <path class="cls-1" d="M74.35,70.31,66.6,81.61C64,83.16,61.49,82.8,59,82.09c-6.56-1.9-13.18-3.69-19.62-6-5.61-2-8.8-7-12.68-11.16-3.35-3.55-4.54-7.75-4.35-12.53.27-7,5-10.9,12-9.66a11.73,11.73,0,0,1,2.46.71c6.8,2.89,13.73,5.53,20.31,8.85,3,1.49,5.42,4.16,7.73,6.63C68.1,62.5,71.05,66.35,74.35,70.31Z"/> <path class="cls-1" d="M105.72,90.15c-.28,4.6-3.29,8.73-6.76,12.55-5,5.51-11.91,6.69-18.52,3.34-4-2-6-5.38-5.59-9.67a49.37,49.37,0,0,1,2.67-10.69C79.6,79.57,85.15,75.42,92,76.36c3.41.47,6.71.5,9.41,3.14A13.48,13.48,0,0,1,105.72,90.15Z"/> </g> </g> </g>
</svg>